<svg width="24" height="24" viewBox="0 0 24 24" fill="none" xmlns="http://www.w3.org/2000/svg">
<path d="M16 7.99938V12.9994C16 13.795 16.3161 14.5581 16.8787 15.1207C17.4413 15.6833 18.2043 15.9994 19 15.9994C19.7956 15.9994 20.5587 15.6833 21.1213 15.1207C21.6839 14.5581 22 13.795 22 12.9994V11.9994C21.9999 9.74241 21.2362 7.55186 19.8333 5.78391C18.4303 4.01596 16.4705 2.7746 14.2726 2.26168C12.0747 1.74875 9.76793 1.99442 7.72734 2.95875C5.68676 3.92307 4.03239 5.54933 3.03325 7.5731C2.03411 9.59687 1.74896 11.8991 2.22416 14.1055C2.69936 16.3119 3.90697 18.2926 5.65062 19.7256C7.39428 21.1587 9.57143 21.9597 11.8281 21.9985C14.0847 22.0373 16.2881 21.3116 18.08 19.9394M16 11.9994C16 14.2085 14.2091 15.9994 12 15.9994C9.79086 15.9994 8 14.2085 8 11.9994C8 9.79024 9.79086 7.99938 12 7.99938C14.2091 7.99938 16 9.79024 16 11.9994Z" stroke="black" stroke-width="2" stroke-linecap="round" stroke-linejoin="round"/>
</svg>
