<svg width="24" height="24" viewBox="0 0 24 24" fill="none" xmlns="http://www.w3.org/2000/svg">
<path d="M18 10.0003L14 6.0003M2.49997 21.5003L5.88434 21.1243C6.29783 21.0783 6.50457 21.0553 6.69782 20.9928C6.86926 20.9373 7.03242 20.8589 7.18286 20.7597C7.35242 20.6479 7.49951 20.5008 7.7937 20.2066L21 7.0003C22.1046 5.89573 22.1046 4.10487 21 3.0003C19.8954 1.89573 18.1046 1.89573 17 3.0003L3.7937 16.2066C3.49952 16.5008 3.35242 16.6478 3.24061 16.8174C3.1414 16.9679 3.06298 17.131 3.00748 17.3025C2.94493 17.4957 2.92195 17.7024 2.87601 18.1159L2.49997 21.5003Z" stroke="black" stroke-width="2" stroke-linecap="round" stroke-linejoin="round"/>
</svg>
