<svg width="20" height="20" viewBox="0 0 20 20" fill="none" xmlns="http://www.w3.org/2000/svg">
<path d="M7.79496 17.5C8.38257 18.0186 9.15444 18.3333 9.99981 18.3333C10.8452 18.3333 11.6171 18.0186 12.2047 17.5M14.9998 6.66663C14.9998 5.34054 14.473 4.06877 13.5353 3.13109C12.5977 2.19341 11.3259 1.66663 9.99981 1.66663C8.67373 1.66663 7.40196 2.19341 6.46428 3.13109C5.5266 4.06877 4.99981 5.34054 4.99981 6.66663C4.99981 9.24178 4.3502 11.0049 3.62453 12.1711C3.01242 13.1549 2.70636 13.6467 2.71758 13.7839C2.73001 13.9359 2.7622 13.9938 2.88463 14.0846C2.99519 14.1666 3.49364 14.1666 4.49052 14.1666H15.5091C16.506 14.1666 17.0044 14.1666 17.115 14.0846C17.2374 13.9938 17.2696 13.9359 17.282 13.7839C17.2933 13.6467 16.9872 13.1549 16.3751 12.1711C15.6494 11.0049 14.9998 9.24178 14.9998 6.66663Z" stroke="#667085" stroke-width="1.66667" stroke-linecap="round" stroke-linejoin="round"/>
</svg>
