<svg width="20" height="20" viewBox="0 0 20 20" fill="none" xmlns="http://www.w3.org/2000/svg">
<path d="M15.0007 8.33338L11.6673 5.00005M2.08398 17.9167L4.90429 17.6033C5.24887 17.5651 5.42115 17.5459 5.58219 17.4938C5.72506 17.4475 5.86102 17.3822 5.98639 17.2995C6.1277 17.2063 6.25027 17.0838 6.49542 16.8386L17.5007 5.83338C18.4211 4.91291 18.4211 3.42052 17.5007 2.50005C16.5802 1.57957 15.0878 1.57957 14.1673 2.50005L3.16209 13.5053C2.91694 13.7504 2.79436 13.873 2.70118 14.0143C2.61851 14.1397 2.55316 14.2756 2.50691 14.4185C2.45478 14.5795 2.43564 14.7518 2.39735 15.0964L2.08398 17.9167Z" stroke="#475467" stroke-width="1.66667" stroke-linecap="round" stroke-linejoin="round"/>
</svg>
