<svg width="24" height="24" viewBox="0 0 24 24" fill="none" xmlns="http://www.w3.org/2000/svg">
<path d="M22 7.99845V11.9984M10.25 5.49845H6.8C5.11984 5.49845 4.27976 5.49845 3.63803 5.82543C3.07354 6.11305 2.6146 6.57199 2.32698 7.13648C2 7.77821 2 8.61829 2 10.2984L2 11.4984C2 12.4303 2 12.8963 2.15224 13.2638C2.35523 13.7539 2.74458 14.1432 3.23463 14.3462C3.60218 14.4984 4.06812 14.4984 5 14.4984V18.7484C5 18.9806 5 19.0967 5.00963 19.1945C5.10316 20.144 5.85441 20.8953 6.80397 20.9888C6.90175 20.9984 7.01783 20.9984 7.25 20.9984C7.48217 20.9984 7.59826 20.9984 7.69604 20.9888C8.64559 20.8953 9.39685 20.144 9.49037 19.1945C9.5 19.0967 9.5 18.9806 9.5 18.7484V14.4984H10.25C12.0164 14.4984 14.1772 15.4453 15.8443 16.3541C16.8168 16.8842 17.3031 17.1493 17.6216 17.1103C17.9169 17.0741 18.1402 16.9415 18.3133 16.6996C18.5 16.4386 18.5 15.9164 18.5 14.8722V5.12473C18.5 4.08044 18.5 3.5583 18.3133 3.29734C18.1402 3.05535 17.9169 2.92275 17.6216 2.88658C17.3031 2.84757 16.8168 3.11265 15.8443 3.6428C14.1772 4.55156 12.0164 5.49845 10.25 5.49845Z" stroke="black" stroke-width="2" stroke-linecap="round" stroke-linejoin="round"/>
</svg>
