<svg width="24" height="24" viewBox="0 0 24 24" fill="none" xmlns="http://www.w3.org/2000/svg">
<path d="M14.391 18.0163C14.8198 19.6166 13.8701 21.2617 12.2697 21.6905C10.6693 22.1193 9.02426 21.1696 8.59543 19.5692M10.8915 5.74231C11.1957 5.19501 11.2959 4.53351 11.1211 3.88092C10.7637 2.54725 9.39288 1.7558 8.05921 2.11315C6.72555 2.4705 5.93409 3.84135 6.29144 5.17501C6.46631 5.82761 6.88384 6.35038 7.42094 6.67225M16.2359 9.44675C15.879 8.11462 14.926 7.00066 13.5868 6.34993C12.2475 5.69919 10.6316 5.56499 9.09449 5.97685C7.55741 6.38871 6.22508 7.31289 5.3906 8.54608C4.55612 9.77927 4.28785 11.2204 4.64479 12.5526C5.23537 14.7566 5.12069 16.515 4.74774 17.8512C4.32267 19.374 4.11014 20.1354 4.16756 20.2883C4.23325 20.4633 4.28076 20.5113 4.455 20.5788C4.60729 20.6378 5.24706 20.4664 6.5266 20.1235L18.3917 16.9443C19.6712 16.6014 20.311 16.43 20.4134 16.3027C20.5305 16.1572 20.5476 16.0918 20.5171 15.9075C20.4904 15.7464 19.9256 15.1932 18.796 14.0869C17.805 13.1163 16.8265 11.6508 16.2359 9.44675Z" stroke="black" stroke-width="2" stroke-linecap="round" stroke-linejoin="round"/>
</svg>
