<svg width="24" height="24" viewBox="0 0 24 24" fill="none" xmlns="http://www.w3.org/2000/svg">
<path d="M15.6459 18.0162C16.0747 19.6166 15.125 21.2617 13.5246 21.6905C11.9242 22.1193 10.2792 21.1696 9.85036 19.5692M2.05683 11.6148C1.66734 10.2166 2.07238 8.70495 3.10878 7.68884M12.1463 5.74231C12.4505 5.19501 12.5507 4.53351 12.3759 3.88092C12.0185 2.54725 10.6477 1.7558 9.314 2.11315C7.98034 2.4705 7.18888 3.84135 7.54624 5.17501C7.7211 5.82761 8.13863 6.35038 8.67573 6.67225M20.319 6.72146C19.9572 5.31586 18.8506 4.20926 17.445 3.84748M17.4906 9.44675C17.1337 8.11461 16.1808 7.00065 14.8415 6.34992C13.5022 5.69919 11.8863 5.56499 10.3492 5.97685C8.81214 6.38871 7.47981 7.31288 6.64533 8.54607C5.81085 9.77926 5.54258 11.2204 5.89952 12.5526C6.4901 14.7566 6.37542 16.515 6.00247 17.8512C5.5774 19.374 5.36487 20.1354 5.42228 20.2883C5.48798 20.4633 5.53549 20.5113 5.70973 20.5788C5.86202 20.6378 6.50179 20.4664 7.78133 20.1235L19.6464 16.9443C20.9259 16.6014 21.5657 16.43 21.6681 16.3027C21.7852 16.1572 21.8024 16.0918 21.7718 15.9075C21.7451 15.7464 21.1803 15.1932 20.0508 14.0869C19.0597 13.1163 18.0812 11.6508 17.4906 9.44675Z" stroke="black" stroke-width="2" stroke-linecap="round" stroke-linejoin="round"/>
</svg>
